<svg width="301" height="152" viewBox="0 0 301 152" fill="none" xmlns="http://www.w3.org/2000/svg">
<path d="M141 38.5C141 53.5634 128.589 66 113 66C97.4107 66 85 53.5634 85 38.5C85 23.4366 97.4107 11 113 11C128.589 11 141 23.4366 141 38.5Z" stroke="white" stroke-width="20"/>
<path d="M141 113.5C141 128.563 128.589 141 113 141C97.4107 141 85 128.563 85 113.5C85 98.4366 97.4107 86 113 86C128.589 86 141 98.4366 141 113.5Z" stroke="white" stroke-width="20"/>
<path d="M217 113.5C217 128.563 204.589 141 189 141C173.411 141 161 128.563 161 113.5C161 98.4366 173.411 86 189 86C204.589 86 217 98.4366 217 113.5Z" stroke="white" stroke-width="20"/>
<path d="M300.5 76L263.5 113L225.5 76V151H244.5V122L263.5 140.5L282 122V151H300.5V76Z" fill="white" stroke="white"/>
<path d="M20 76H0.5V1H20H48.8319C51.6028 1 54.3952 1.21359 57.0155 2.11439C68.791 6.16255 73.2469 15.1319 74 19.5C77.1667 29.8333 76.7 51.9 49.5 57.5L57 76H37L28.5 57.5H21V38.5H28.5H43.5836C47.4366 38.5 51.5072 37.4707 53.3973 34.1131C55.8559 29.7454 56.177 23.7171 49.5 19.5H20V76Z" fill="white"/>
<path d="M20 1H0.5V76H20V19.5M20 1V19.5M20 1H48.8319C51.6028 1 54.3952 1.21359 57.0155 2.11439C68.791 6.16255 73.2469 15.1319 74 19.5M20 19.5C20 19.5 37.9795 19.5 49.5 19.5M74 19.5C77.1667 29.8333 76.7 51.9 49.5 57.5L57 76H37L28.5 57.5M74 19.5C74 19.5 59.0678 19.5 49.5 19.5M28.5 57.5V38.5M28.5 57.5H21V38.5H28.5M28.5 38.5H43.5836C47.4366 38.5 51.5072 37.4707 53.3973 34.1131C55.8558 29.7454 56.177 23.7171 49.5 19.5" stroke="white"/>
</svg>
